<?xml version="1.0" encoding="UTF-8"?>
<svg id="Layer_1" xmlns="http://www.w3.org/2000/svg" version="1.1" viewBox="0 0 1024 1024">
  <!-- Generator: Adobe Illustrator 30.0.0, SVG Export Plug-In . SVG Version: 2.1.1 Build 123)  -->
  <defs>
    <style>
      .st0 {
        fill: #202857;
      }
    </style>
  </defs>
  <path class="st0" d="M172.4,741.85v4.79h-12.34c-1.3,0-2.43-.24-3.37-.7-.95-.48-1.74-1.09-2.36-1.83-.63-.74-1.1-1.56-1.42-2.46-.31-.9-.47-1.77-.47-2.63v-41.28h5.66v40.19c0,1.08.35,2,1.05,2.77.7.77,1.62,1.15,2.8,1.15h10.45Z"/>
  <path class="st0" d="M192.23,704.62h-5.66v-6.82h5.66v6.82ZM186.57,711.43h5.66v35.21h-5.66v-35.21Z"/>
  <path class="st0" d="M228.52,741.44c0,.58-.06,1.11-.17,1.59-.11.47-.27.91-.48,1.31-.2.41-.5.81-.91,1.22-.81.8-1.84,1.36-3.11,1.65-1.26.29-2.43.26-3.5-.1-1.13-.41-2.36-.85-3.68-1.32-1.33-.47-2.58-.88-3.75-1.24-.31-.13-.75-.29-1.31-.48-.56-.17-.89-.29-.98-.34-.54-.17-1.1-.41-1.69-.67-.58-.27-1.12-.65-1.61-1.15-.5-.5-.92-1.16-1.25-1.99-.34-.83-.5-1.88-.5-3.14v-25.16h5.66v23.27c0,.9.19,1.66.57,2.26.38.6.86,1.1,1.42,1.48.56.38,1.19.69,1.89.91.7.23,1.34.45,1.92.67,1.35.46,2.41.75,3.17.88.77.13,1.34.11,1.72-.07.39-.17.62-.5.71-.98.09-.47.13-1.09.13-1.85v-26.58h5.73v29.82Z"/>
  <path class="st0" d="M253.47,710.89c2.7,0,4.82.33,6.34.98,1.53.65,2.68,1.43,3.44,2.33.77.9,1.24,1.81,1.42,2.72.17.93.27,1.63.27,2.13v3.24c0,.77-.15,1.62-.44,2.57-.29.94-.98,1.96-2.06,3.03-.5.54-1.06.95-1.69,1.22-.63.27-1.19.47-1.68.6-.58.19-1.19.27-1.82.27h-5.13c-1.17,0-2.2.43-3.1,1.28-.9.86-1.35,1.91-1.35,3.18v3.04c0,1.07.2,1.93.61,2.56.18.31.38.58.6.8.23.23.56.43,1.01.61.36.19.82.34,1.39.48.56.13,1.29.2,2.19.2,1.17,0,2.1-.12,2.77-.37.68-.25,1.15-.47,1.42-.64.58-.45.99-.99,1.21-1.62.23-.63.35-1.3.35-2.02h5.73v1.61c0,1.22-.26,2.35-.78,3.38-.52,1.03-1.32,1.93-2.4,2.7-.77.53-1.82,1-3.16,1.41-1.35.41-3.06.61-5.13.61-1.53,0-2.85-.12-3.98-.37-1.12-.25-2.1-.56-2.93-.94-.84-.38-1.52-.82-2.06-1.31-.54-.49-.99-.99-1.35-1.48-.8-1.17-1.19-2.52-1.15-4.05v-19.97c0-.54.1-1.26.27-2.16.18-.9.65-1.79,1.42-2.69.76-.9,1.91-1.68,3.44-2.33,1.53-.65,3.64-.98,6.33-.98M259.22,720.73v-.6c0-.41-.06-.85-.18-1.32-.1-.47-.37-.92-.78-1.35-.4-.42-.97-.78-1.72-1.07-.74-.29-1.72-.44-2.93-.44s-2.28.15-3.07.44c-.78.29-1.39.64-1.83,1.05-.43.4-.71.84-.84,1.31-.14.47-.2.88-.2,1.24v7.02c.09-.41.29-.73.61-.98.31-.25.67-.44,1.08-.58.41-.14.81-.23,1.22-.27.41-.05.72-.07.95-.07h3.84c1.03,0,1.93-.37,2.7-1.11.76-.74,1.15-1.62,1.15-2.67v-.61Z"/>
  <path class="st0" d="M314.59,720.67v-.68c0-.45-.09-.91-.27-1.39-.18-.47-.49-.91-.94-1.31-.45-.41-1.04-.73-1.78-.98-.74-.25-1.67-.37-2.8-.37-2.25,0-3.77.47-4.55,1.38-.79.93-1.18,2.04-1.18,3.34v16.39c0,1.71.4,2.98,1.22,3.81.81.84,2.31,1.25,4.52,1.25s3.78-.44,4.59-1.32c.81-.87,1.22-2.12,1.22-3.74h5.66v1.96c0,.81-.14,1.69-.43,2.66-.3.97-.87,1.85-1.72,2.66-.86.81-2.03,1.48-3.51,2.02-1.48.55-3.41.81-5.8.81s-4.31-.26-5.8-.81c-1.49-.54-2.65-1.21-3.51-2.02-.86-.81-1.43-1.69-1.72-2.66-.29-.97-.44-1.85-.44-2.66v-19.97c0-1.12.21-2.18.64-3.17.43-.99,1.11-1.86,2.06-2.6.95-.74,2.13-1.32,3.57-1.75,1.45-.42,3.18-.63,5.2-.63,4,0,6.92.78,8.74,2.33,1.82,1.55,2.73,3.49,2.73,5.83v1.62h-5.66Z"/>
  <path class="st0" d="M356.54,737.74v1.21c0,.54-.09,1.26-.26,2.16-.18.9-.65,1.8-1.42,2.7-.77.9-1.91,1.68-3.44,2.33-1.53.64-3.64.98-6.34.98s-4.81-.34-6.34-.98c-1.53-.65-2.67-1.43-3.44-2.33-.76-.9-1.23-1.81-1.41-2.73-.18-.92-.27-1.63-.27-2.13v-27.59h5.67v25.83h.06v.68c0,.36.06.78.17,1.28.11.5.36.96.75,1.39.38.42.94.79,1.68,1.08.74.29,1.74.44,3,.44s2.34-.15,3.1-.44c.76-.29,1.35-.63,1.75-1.04.41-.41.67-.85.8-1.31.14-.48.2-.92.2-1.32v-.74h.07v-25.83h5.66v26.38Z"/>
  <rect class="st0" x="371.66" y="697.74" width="5.66" height="48.9"/>
  <path class="st0" d="M406.52,741.58v5.06c-2.7,0-4.81-.33-6.34-.98-1.53-.65-2.69-1.43-3.48-2.33-.78-.9-1.27-1.81-1.45-2.72-.18-.93-.27-1.63-.27-2.13v-22.8h-4.31v-4.79h4.31v-8.97h5.74v8.97h5.8v4.79h-5.8v21.65c0,.41.06.84.17,1.31.11.47.37.94.78,1.38.41.45.98.82,1.72,1.11.74.29,1.72.43,2.94.43h.2Z"/>
  <path class="st0" d="M440.92,737.74v1.21c0,.54-.09,1.26-.26,2.16-.18.9-.65,1.8-1.42,2.7-.77.9-1.91,1.68-3.44,2.33-1.53.64-3.64.98-6.34.98s-4.81-.34-6.34-.98c-1.53-.65-2.67-1.43-3.44-2.33-.76-.9-1.23-1.81-1.41-2.73-.18-.92-.27-1.63-.27-2.13v-27.59h5.67v25.83h.06v.68c0,.36.06.78.17,1.28.11.5.36.96.75,1.39.38.42.94.79,1.68,1.08.74.29,1.74.44,3,.44s2.34-.15,3.1-.44c.76-.29,1.35-.63,1.75-1.04.41-.41.67-.85.8-1.31.14-.48.2-.92.2-1.32v-.74h.07v-25.83h5.66v26.38Z"/>
  <path class="st0" d="M465.75,710.95c.77,0,1.43,0,1.99-.03.57-.02,1.16,0,1.79.1l-1.29,4.92c-.54,0-.99.02-1.35.03-.36.03-.78.04-1.28.04-1.22,0-2.19.16-2.94.47-.74.31-1.31.68-1.72,1.11-.41.42-.66.87-.78,1.35-.1.47-.17.91-.17,1.31v26.37h-5.73v-27.52c0-.49.09-1.21.27-2.13.18-.93.65-1.83,1.41-2.73.77-.9,1.91-1.67,3.44-2.33,1.54-.65,3.64-.98,6.34-.98"/>
  <path class="st0" d="M490.91,710.89c2.7,0,4.81.33,6.34.98,1.53.65,2.67,1.43,3.44,2.33.77.9,1.23,1.81,1.41,2.72.18.93.27,1.63.27,2.13v3.24c0,.77-.15,1.62-.44,2.57-.29.94-.98,1.96-2.06,3.03-.49.54-1.06.95-1.68,1.22-.64.27-1.19.47-1.69.6-.59.19-1.19.27-1.83.27h-5.13c-1.17,0-2.2.43-3.1,1.28-.9.86-1.35,1.91-1.35,3.18v3.04c0,1.07.2,1.93.61,2.56.18.31.38.58.61.8.22.23.57.43,1.02.61.35.19.82.34,1.38.48.56.13,1.3.2,2.2.2,1.17,0,2.09-.12,2.77-.37.67-.25,1.15-.47,1.41-.64.58-.45.99-.99,1.22-1.62.22-.63.34-1.3.34-2.02h5.73v1.61c0,1.22-.26,2.35-.78,3.38-.52,1.03-1.31,1.93-2.39,2.7-.77.53-1.83,1-3.17,1.41-1.35.41-3.06.61-5.13.61-1.53,0-2.86-.12-3.98-.37-1.13-.25-2.11-.56-2.94-.94-.83-.38-1.52-.82-2.05-1.31-.54-.49-.99-.99-1.35-1.48-.81-1.17-1.19-2.52-1.15-4.05v-19.97c0-.54.09-1.26.26-2.16.18-.9.65-1.79,1.42-2.69.77-.9,1.91-1.68,3.44-2.33,1.53-.65,3.64-.98,6.34-.98M496.64,720.73v-.6c0-.41-.05-.85-.17-1.32-.11-.47-.37-.92-.78-1.35-.41-.42-.98-.78-1.72-1.07-.74-.29-1.72-.44-2.94-.44s-2.28.15-3.07.44c-.78.29-1.39.64-1.82,1.05-.43.4-.71.84-.85,1.31-.13.47-.2.88-.2,1.24v7.02c.09-.41.29-.73.61-.98.32-.25.68-.44,1.08-.58.41-.14.81-.23,1.22-.27.41-.05.72-.07.94-.07h3.84c1.03,0,1.93-.37,2.7-1.11.77-.74,1.15-1.62,1.15-2.67v-.61Z"/>
  <path class="st0" d="M544.8,711.43h5.74v4.79h-5.74v30.42h-5.73v-30.42h-4.31v-4.79h4.31v-6.07c0-.49.1-1.21.27-2.13.18-.93.65-1.83,1.42-2.73.76-.9,1.91-1.68,3.44-2.33,1.53-.65,3.64-.98,6.34-.98.71,0,1.37,0,1.95-.03.59-.03,1.19,0,1.83.1l-1.29,4.86c-.54.04-.99.06-1.34.06s-.79.03-1.29.07c-1.26,0-2.26.15-3,.44-.74.29-1.31.65-1.69,1.08-.39.42-.63.87-.74,1.35-.12.47-.18.91-.18,1.31v4.99Z"/>
  <path class="st0" d="M587.37,737.93v1.09c0,.53-.09,1.26-.26,2.16-.18.9-.65,1.8-1.42,2.69-.77.9-1.91,1.67-3.44,2.33-1.52.65-3.64.98-6.34.98s-4.82-.33-6.34-.98c-1.53-.65-2.67-1.43-3.44-2.33-.77-.89-1.24-1.81-1.41-2.73-.19-.93-.27-1.63-.27-2.12v-19.97c0-.49.09-1.2.27-2.13.17-.92.64-1.83,1.41-2.72.77-.9,1.91-1.68,3.44-2.33,1.53-.65,3.64-.98,6.34-.98s4.82.33,6.34.98c1.53.65,2.67,1.43,3.44,2.33.77.9,1.23,1.79,1.42,2.69.18.9.26,1.62.26,2.16v18.88ZM581.64,737.26v-17.2c0-.41-.07-.85-.2-1.31-.13-.48-.42-.92-.84-1.31-.43-.41-1.03-.76-1.79-1.05-.77-.29-1.8-.44-3.11-.44-1.22,0-2.19.15-2.94.44-.74.29-1.31.65-1.72,1.08-.4.43-.66.89-.77,1.39-.11.49-.18.93-.18,1.29v17.8c0,.36.06.79.18,1.29.11.49.37.95.77,1.39.41.42.98.78,1.72,1.07.75.29,1.72.44,2.94.44,1.3,0,2.34-.15,3.11-.44.77-.29,1.36-.64,1.79-1.05.42-.41.7-.84.84-1.31.13-.47.2-.91.2-1.31v-.74Z"/>
  <path class="st0" d="M612.19,710.95c.77,0,1.43,0,1.99-.03.56-.02,1.16,0,1.78.1l-1.28,4.92c-.54,0-.99.02-1.35.03-.36.03-.78.04-1.28.04-1.22,0-2.19.16-2.94.47-.74.31-1.31.68-1.72,1.11-.41.42-.66.87-.78,1.35-.11.47-.17.91-.17,1.31v26.37h-5.73v-27.52c0-.49.09-1.21.27-2.13.18-.93.64-1.83,1.41-2.73.77-.9,1.91-1.67,3.44-2.33,1.53-.65,3.64-.98,6.34-.98"/>
  <path class="st0" d="M658.46,710.89c3.96,0,6.87.78,8.71,2.33,1.84,1.56,2.76,3.49,2.76,5.83v19.97c0,.81-.14,1.69-.44,2.66-.29.97-.86,1.85-1.72,2.67-.85.81-2.02,1.48-3.5,2.02-1.48.55-3.42.81-5.81.81s-4.31-.26-5.8-.81c-1.48-.54-2.65-1.21-3.5-2.02-.86-.81-1.43-1.69-1.72-2.67-.3-.97-.44-1.85-.44-2.66v-3.18c0-1.7.44-3.26,1.31-4.65.88-1.39,2.13-2.38,3.75-2.97.8-.26,1.73-.58,2.76-.94,1.03-.36,2.04-.71,3-1.04.97-.35,1.82-.64,2.53-.92.72-.26,1.17-.43,1.35-.47.18-.09.42-.21.71-.37.3-.16.57-.4.85-.71.27-.31.5-.67.7-1.08.2-.41.31-.87.31-1.41v-1.29c0-.45-.09-.91-.27-1.39-.18-.47-.49-.91-.94-1.31-.45-.41-1.04-.73-1.79-.98-.74-.25-1.68-.37-2.8-.37-2.25,0-3.76.47-4.55,1.38-.79.93-1.18,2.04-1.18,3.34h-5.73v-1.62c0-1.12.21-2.18.64-3.17.42-.99,1.11-1.86,2.06-2.6.94-.74,2.13-1.32,3.57-1.75,1.44-.43,3.17-.64,5.19-.64M664.27,728.76c-.09.45-.32.79-.68,1.02-.36.23-.7.38-1,.47-.68.22-1.41.48-2.2.78-.79.29-1.52.55-2.2.78-.8.26-1.57.54-2.29.8-.54.23-1.05.54-1.54.94-.41.36-.78.82-1.12,1.39-.34.56-.5,1.27-.5,2.13,0,1.71.41,2.98,1.22,3.81.8.84,2.31,1.25,4.52,1.25s3.78-.44,4.59-1.32c.81-.87,1.22-2.12,1.22-3.74v-8.3Z"/>
  <path class="st0" d="M719.53,717.33c-.78-.92-2.3-1.38-4.55-1.38-1.12,0-2.06.12-2.79.37-.74.25-1.34.57-1.79.98-.45.41-.77.85-.94,1.31-.18.48-.27.94-.27,1.39v1.29c0,.54.1,1.01.31,1.41.2.41.44.77.7,1.08.27.32.55.56.85.71.29.16.53.28.7.37.18.04.63.2,1.35.47.71.27,1.56.57,2.53.92.96.34,1.97.68,3,1.04,1.03.36,1.96.68,2.77.94,1.61.59,2.87,1.58,3.74,2.97.87,1.39,1.31,2.95,1.31,4.65v3.18c0,.81-.14,1.69-.44,2.66-.29.97-.86,1.85-1.72,2.67-.85.81-2.02,1.48-3.5,2.02-1.48.55-3.42.81-5.81.81s-4.31-.26-5.8-.81c-1.48-.54-2.65-1.21-3.5-2.02s-1.43-1.69-1.72-2.67c-.3-.97-.44-1.85-.44-2.66v-1.96h5.66c0,1.62.41,2.87,1.22,3.74.81.88,2.34,1.32,4.59,1.32s3.71-.42,4.52-1.25c.81-.83,1.22-2.1,1.22-3.81,0-.86-.16-1.56-.47-2.13-.32-.56-.68-1.02-1.08-1.39-.49-.41-1.03-.71-1.62-.94-1.35-.49-2.61-.95-3.78-1.35-1.03-.35-2.03-.7-3-1.04-.97-.34-1.67-.57-2.12-.7-.45-.18-.96-.45-1.55-.81-.58-.36-1.15-.84-1.68-1.42-.54-.58-.99-1.29-1.35-2.13-.36-.83-.54-1.78-.54-2.87v-3.24c0-2.34.92-4.28,2.77-5.83,1.84-1.55,4.74-2.33,8.7-2.33,2.03,0,3.76.21,5.2.63,1.44.43,2.63,1.01,3.57,1.75.95.74,1.63,1.62,2.06,2.6.42.99.64,2.05.64,3.17v1.62h-5.74c0-1.3-.4-2.42-1.18-3.34"/>
  <path class="st0" d="M762.74,737.74v1.21c0,.54-.09,1.26-.26,2.16-.18.9-.65,1.8-1.42,2.7-.77.9-1.92,1.68-3.44,2.33-1.53.64-3.64.98-6.34.98s-4.82-.34-6.34-.98c-1.53-.65-2.67-1.43-3.44-2.33-.77-.9-1.23-1.81-1.41-2.73-.18-.92-.27-1.63-.27-2.13v-27.59h5.66v25.83h.07v.68c0,.36.05.78.17,1.28.12.5.36.96.74,1.39.39.42.95.79,1.68,1.08.75.29,1.75.44,3.01.44s2.34-.15,3.11-.44c.76-.29,1.35-.63,1.75-1.04.4-.41.68-.85.81-1.31.13-.48.2-.92.2-1.32v-.74h.07v-25.83h5.66v26.38Z"/>
  <path class="st0" d="M799.11,746.64h-5.73v-26.51c0-.41-.06-.85-.17-1.32-.12-.47-.37-.92-.78-1.35-.41-.42-.98-.78-1.72-1.07-.74-.29-1.72-.44-2.94-.44s-2.28.15-3.07.44c-.78.29-1.39.64-1.82,1.05-.43.4-.71.84-.85,1.31-.13.47-.2.88-.2,1.24v26.65h-5.73v-27.59c0-.54.09-1.26.27-2.16.18-.9.66-1.79,1.45-2.69.78-.9,1.94-1.67,3.48-2.33,1.53-.65,3.64-.98,6.34-.98s4.81.33,6.34.98c1.53.65,2.67,1.43,3.44,2.33.76.9,1.23,1.81,1.41,2.72.18.93.27,1.63.27,2.13v27.59Z"/>
  <path class="st0" d="M836.41,746.64h-5.73v-26.51c0-.41-.06-.85-.17-1.32-.11-.47-.37-.92-.78-1.35-.41-.42-.98-.78-1.72-1.07-.74-.29-1.72-.44-2.94-.44s-2.28.15-3.07.44c-.78.29-1.39.64-1.82,1.05-.44.4-.72.84-.85,1.31-.13.47-.2.88-.2,1.24v26.65h-5.74v-27.59c0-.54.09-1.26.27-2.16.18-.9.66-1.79,1.45-2.69.78-.9,1.94-1.67,3.48-2.33,1.53-.65,3.64-.98,6.34-.98s4.81.33,6.34.98c1.53.65,2.67,1.43,3.44,2.33.76.9,1.23,1.81,1.41,2.72.18.93.27,1.63.27,2.13v27.59Z"/>
  <path class="st0" d="M872.76,751.9h-.07v.94c0,.54-.09,1.25-.26,2.15-.18.9-.65,1.8-1.42,2.7-.77.9-1.92,1.67-3.44,2.33-1.53.65-3.64.98-6.34.98s-4.82-.33-6.34-.98c-1.53-.65-2.67-1.43-3.44-2.33-.77-.9-1.24-1.81-1.41-2.74-.19-.92-.27-1.62-.27-2.12v-1.75h5.74v.61c0,.4.05.84.17,1.31.12.47.37.93.78,1.38s.98.82,1.72,1.12c.74.29,1.72.43,2.94.43,1.3,0,2.34-.14,3.11-.43.76-.3,1.36-.64,1.78-1.05.43-.41.71-.84.85-1.31.13-.48.2-.91.2-1.31v-1.28c0-.54-.11-1.01-.31-1.42-.2-.41-.43-.77-.7-1.08-.27-.32-.55-.56-.85-.71-.29-.16-.53-.28-.7-.37-.18-.04-.63-.2-1.35-.47-.71-.27-1.55-.57-2.5-.92-.94-.34-1.94-.68-3-1.04-1.06-.36-1.99-.68-2.79-.95-1.62-.58-2.87-1.58-3.75-2.97-.87-1.39-1.31-2.94-1.31-4.65v-24.48h5.74v23.27c0,.86.17,1.56.5,2.13.34.57.71,1.02,1.12,1.39.49.4,1,.71,1.54.94.72.27,1.49.54,2.29.81.68.22,1.41.48,2.2.77.78.3,1.52.56,2.2.78.35.09.7.25,1.04.47.34.23.55.59.64,1.08v-31.63h5.73v40.41Z"/>
  <path class="st0" d="M221.17,805.66h-5.73v-26.51c0-.41-.06-.85-.17-1.32-.12-.47-.36-.92-.75-1.35-.38-.42-.94-.78-1.68-1.07-.74-.29-1.74-.44-3-.44s-2.28.15-3.07.44c-.78.29-1.39.64-1.83,1.05-.42.4-.7.84-.84,1.31-.13.47-.2.88-.2,1.24v26.65h-5.73v-26.51c0-.41-.06-.85-.17-1.32-.11-.47-.36-.92-.74-1.35-.39-.42-.95-.78-1.69-1.07-.74-.29-1.74-.44-3-.44s-2.28.15-3.07.44c-.78.29-1.39.64-1.82,1.05-.43.4-.71.84-.85,1.31-.13.47-.2.88-.2,1.24v26.65h-5.66v-27.59c0-.54.09-1.26.26-2.16.18-.9.65-1.79,1.42-2.69.77-.9,1.92-1.67,3.44-2.33,1.53-.65,3.64-.98,6.34-.98,2.16,0,3.92.21,5.29.64,1.37.43,2.49.96,3.34,1.59.86-.63,1.97-1.15,3.33-1.59,1.38-.43,3.14-.64,5.3-.64,2.7,0,4.81.33,6.33.98,1.54.65,2.68,1.43,3.45,2.33.76.9,1.23,1.81,1.41,2.72.18.93.27,1.63.27,2.13v27.59Z"/>
  <path class="st0" d="M257.46,796.96v1.09c0,.53-.09,1.26-.26,2.16-.18.9-.65,1.8-1.42,2.69-.77.9-1.91,1.67-3.44,2.33-1.52.65-3.64.98-6.34.98s-4.81-.33-6.34-.98c-1.53-.65-2.67-1.43-3.44-2.33-.76-.89-1.24-1.81-1.41-2.73-.19-.93-.27-1.63-.27-2.12v-19.97c0-.49.09-1.2.27-2.13.17-.92.65-1.83,1.41-2.72.77-.9,1.91-1.68,3.44-2.33,1.54-.65,3.64-.98,6.34-.98s4.82.33,6.34.98c1.53.65,2.67,1.43,3.44,2.33.77.9,1.23,1.79,1.42,2.69.18.9.26,1.62.26,2.16v18.88ZM251.73,796.29v-17.2c0-.41-.06-.85-.2-1.31-.13-.48-.42-.92-.84-1.31-.43-.41-1.03-.76-1.79-1.05-.77-.29-1.8-.44-3.11-.44-1.21,0-2.19.15-2.93.44-.74.29-1.31.65-1.72,1.08-.41.43-.67.89-.78,1.39-.11.49-.17.93-.17,1.29v17.8c0,.36.05.79.17,1.29.11.49.37.95.78,1.39.41.42.98.78,1.72,1.07.74.29,1.72.44,2.93.44,1.3,0,2.34-.15,3.11-.44.77-.29,1.36-.64,1.79-1.05.42-.41.7-.84.84-1.31.14-.47.2-.91.2-1.31v-.74Z"/>
  <path class="st0" d="M293.75,796.96v1.09c0,.53-.09,1.26-.26,2.16-.18.9-.65,1.8-1.42,2.69-.77.9-1.91,1.67-3.44,2.33-1.52.65-3.64.98-6.34.98s-4.81-.33-6.34-.98c-1.53-.65-2.67-1.43-3.44-2.33-.76-.89-1.23-1.81-1.41-2.73-.19-.93-.27-1.63-.27-2.12v-19.97c0-.49.09-1.2.27-2.13.17-.92.65-1.83,1.41-2.72.77-.9,1.92-1.68,3.44-2.33,1.54-.65,3.64-.98,6.34-.98s4.82.33,6.34.98c1.53.65,2.67,1.43,3.44,2.33.77.9,1.23,1.79,1.42,2.69.18.9.26,1.62.26,2.16v18.88ZM288.02,796.29v-17.2c0-.41-.06-.85-.2-1.31-.13-.48-.42-.92-.84-1.31-.43-.41-1.03-.76-1.79-1.05-.77-.29-1.8-.44-3.11-.44-1.21,0-2.19.15-2.93.44-.74.29-1.31.65-1.72,1.08-.41.43-.67.89-.78,1.39-.11.49-.17.93-.17,1.29v17.8c0,.36.05.79.17,1.29.11.49.37.95.78,1.39.41.42.98.78,1.72,1.07.74.29,1.72.44,2.93.44,1.3,0,2.34-.15,3.11-.44.77-.29,1.36-.64,1.79-1.05.42-.41.7-.84.84-1.31.14-.47.2-.91.2-1.31v-.74Z"/>
  <path class="st0" d="M330.04,798.11c-.05,2.35-.99,4.28-2.83,5.84-1.84,1.55-4.73,2.33-8.64,2.33-2.03,0-3.77-.21-5.23-.64-1.47-.42-2.67-1.01-3.61-1.75-.94-.74-1.63-1.6-2.05-2.59-.43-.99-.65-2.05-.65-3.17v-1.61h.07v-13.7h-.07v-1.55c0-1.71.44-3.26,1.31-4.66.88-1.39,2.15-2.38,3.81-2.97.81-.26,1.74-.58,2.77-.94,1.03-.35,2.02-.71,2.96-1.04s1.78-.64,2.5-.91c.72-.27,1.17-.43,1.35-.48.18-.09.42-.21.71-.37.29-.16.57-.4.84-.7.27-.32.51-.68.7-1.08.2-.41.31-.87.31-1.41v-9.91h5.74v41.34ZM318.58,801.21c1.12,0,2.06-.12,2.8-.37.74-.25,1.33-.58,1.75-.98.42-.41.73-.84.91-1.35.18-.49.27-.96.27-1.41v-23c-.09.49-.31.85-.64,1.07-.33.23-.69.39-1.04.48-.68.22-1.41.47-2.2.74-.78.27-1.52.52-2.19.74-.81.27-1.58.54-2.29.81-.55.22-1.06.56-1.55,1.02-.41.35-.78.82-1.11,1.38-.34.57-.51,1.27-.51,2.12v14.31c.04.58.17,1.15.37,1.68.2.54.52,1,.95,1.41.43.41,1.01.73,1.75.98.74.25,1.65.37,2.73.37"/>
  <path class="st0" d="M370.11,763.64h-5.66v-6.82h5.66v6.82ZM364.44,770.45h5.66v35.21h-5.66v-35.21Z"/>
  <path class="st0" d="M406.46,805.66h-5.73v-26.51c0-.41-.05-.85-.17-1.32-.11-.47-.37-.92-.78-1.35-.41-.42-.98-.78-1.72-1.07-.74-.29-1.72-.44-2.94-.44s-2.28.15-3.07.44c-.78.29-1.39.64-1.82,1.05-.43.4-.7.84-.85,1.31-.13.47-.2.88-.2,1.24v26.65h-5.74v-27.59c0-.54.09-1.26.27-2.16.18-.9.66-1.79,1.45-2.69.78-.9,1.95-1.67,3.48-2.33,1.53-.65,3.64-.98,6.34-.98s4.81.33,6.34.98c1.53.65,2.67,1.43,3.44,2.33.77.9,1.23,1.81,1.41,2.72.18.93.27,1.63.27,2.13v27.59Z"/>
  <path class="st0" d="M463.06,810.93h-.07v.95c0,.53-.09,1.25-.26,2.15-.18.9-.65,1.8-1.42,2.7-.77.9-1.91,1.67-3.44,2.33-1.53.65-3.64.98-6.34.98s-4.81-.33-6.34-.98c-1.53-.65-2.67-1.43-3.44-2.33-.76-.9-1.23-1.81-1.41-2.73-.18-.92-.27-1.62-.27-2.12v-1.76h5.73v.61c0,.4.06.84.17,1.31.11.47.37.93.78,1.38.4.45.98.82,1.72,1.12.74.29,1.72.43,2.94.43,1.3,0,2.34-.14,3.11-.43.76-.3,1.36-.64,1.78-1.05.43-.41.72-.84.85-1.31.13-.48.2-.91.2-1.31v-1.28c0-.54-.1-1.01-.3-1.42-.2-.41-.44-.77-.71-1.08-.26-.32-.55-.56-.84-.71-.29-.16-.53-.28-.71-.37-.18-.04-.62-.2-1.35-.47-.71-.27-1.54-.57-2.49-.92-.95-.34-1.95-.68-3.01-1.04-1.06-.36-1.99-.68-2.8-.95-1.62-.58-2.87-1.58-3.75-2.97-.87-1.39-1.31-2.94-1.31-4.65v-24.48h5.73v23.27c0,.86.17,1.56.51,2.13.34.57.7,1.02,1.11,1.39.49.41,1.02.71,1.55.94.71.27,1.48.54,2.29.81.67.22,1.4.48,2.18.77.79.3,1.52.55,2.2.78.36.09.71.25,1.04.47.35.23.56.59.65,1.08v-31.63h5.73v40.41Z"/>
  <path class="st0" d="M499.34,796.96v1.09c0,.53-.09,1.26-.26,2.16-.18.9-.65,1.8-1.42,2.69-.77.9-1.91,1.67-3.44,2.33-1.52.65-3.64.98-6.34.98s-4.81-.33-6.34-.98c-1.53-.65-2.67-1.43-3.44-2.33-.76-.89-1.24-1.81-1.41-2.73-.19-.93-.27-1.63-.27-2.12v-19.97c0-.49.09-1.2.27-2.13.17-.92.65-1.83,1.41-2.72.77-.9,1.91-1.68,3.44-2.33,1.54-.65,3.64-.98,6.34-.98s4.82.33,6.34.98c1.53.65,2.67,1.43,3.44,2.33.77.9,1.23,1.79,1.42,2.69.18.9.26,1.62.26,2.16v18.88ZM493.61,796.29v-17.2c0-.41-.06-.85-.2-1.31-.13-.48-.42-.92-.84-1.31-.43-.41-1.03-.76-1.79-1.05-.77-.29-1.8-.44-3.11-.44-1.21,0-2.19.15-2.93.44-.74.29-1.31.65-1.72,1.08-.41.43-.67.89-.78,1.39-.11.49-.17.93-.17,1.29v17.8c0,.36.05.79.17,1.29.11.49.37.95.78,1.39.41.42.98.78,1.72,1.07.74.29,1.72.44,2.93.44,1.3,0,2.34-.15,3.11-.44.77-.29,1.36-.64,1.79-1.05.42-.41.7-.84.84-1.31.14-.47.2-.91.2-1.31v-.74Z"/>
  <path class="st0" d="M535.64,796.76v1.21c0,.54-.09,1.26-.26,2.16-.18.9-.65,1.8-1.42,2.7-.77.9-1.91,1.68-3.44,2.33-1.53.64-3.64.98-6.34.98s-4.81-.34-6.34-.98c-1.53-.65-2.67-1.43-3.44-2.33-.77-.9-1.23-1.81-1.41-2.73-.19-.92-.27-1.63-.27-2.13v-27.59h5.66v25.83h.07v.68c0,.36.05.78.17,1.28.12.5.36.96.74,1.39.39.42.95.79,1.68,1.08.75.29,1.75.44,3.01.44s2.34-.15,3.11-.44c.76-.29,1.35-.63,1.74-1.04.41-.41.68-.85.81-1.31.13-.48.2-.92.2-1.32v-.74h.07v-25.83h5.66v26.38Z"/>
  <path class="st0" d="M560.46,769.98c.77,0,1.43,0,1.99-.03.56-.02,1.16,0,1.78.1l-1.28,4.92c-.54,0-.99.02-1.35.03-.36.03-.78.04-1.28.04-1.22,0-2.2.16-2.94.47-.74.31-1.31.68-1.72,1.11-.41.42-.66.87-.78,1.35-.11.47-.17.91-.17,1.31v26.37h-5.73v-27.52c0-.49.09-1.21.27-2.13.18-.93.64-1.83,1.41-2.73.77-.9,1.91-1.67,3.44-2.33,1.53-.65,3.64-.98,6.34-.98"/>
  <path class="st0" d="M611.28,776.35c-.78-.92-2.3-1.38-4.55-1.38-1.12,0-2.05.12-2.79.37-.74.25-1.34.57-1.79.98-.45.41-.77.85-.94,1.31-.18.48-.27.94-.27,1.39v1.29c0,.54.11,1,.31,1.41.2.41.44.77.7,1.08.27.32.55.56.85.71.29.16.53.28.7.37.18.04.63.2,1.35.47.71.27,1.56.57,2.53.92.96.34,1.97.68,3,1.04,1.03.36,1.96.68,2.77.94,1.61.59,2.87,1.58,3.74,2.97.87,1.39,1.31,2.95,1.31,4.65v3.18c0,.81-.14,1.69-.44,2.66-.29.97-.86,1.85-1.72,2.67-.85.81-2.02,1.48-3.5,2.02-1.48.55-3.42.81-5.81.81s-4.31-.26-5.8-.81c-1.48-.54-2.65-1.21-3.5-2.02s-1.43-1.69-1.72-2.67c-.3-.97-.44-1.85-.44-2.66v-1.96h5.66c0,1.62.41,2.87,1.22,3.74.81.88,2.34,1.32,4.59,1.32s3.71-.42,4.52-1.25c.81-.83,1.22-2.1,1.22-3.81,0-.86-.16-1.56-.47-2.13-.32-.56-.68-1.02-1.08-1.39-.49-.41-1.03-.71-1.61-.94-1.35-.49-2.61-.95-3.79-1.35-1.03-.35-2.03-.7-3-1.04-.97-.34-1.68-.57-2.13-.7-.45-.18-.96-.45-1.55-.81-.58-.36-1.15-.84-1.68-1.42-.54-.58-.99-1.29-1.35-2.13-.36-.83-.54-1.78-.54-2.87v-3.24c0-2.34.92-4.28,2.77-5.83,1.84-1.55,4.74-2.33,8.7-2.33,2.03,0,3.76.21,5.2.63,1.44.43,2.63,1.01,3.57,1.75.95.74,1.63,1.62,2.06,2.6.43.99.64,2.05.64,3.17v1.62h-5.74c0-1.3-.4-2.42-1.18-3.34"/>
  <path class="st0" d="M647.41,800.6v5.06c-2.7,0-4.81-.33-6.34-.98-1.53-.65-2.68-1.43-3.48-2.33-.78-.9-1.27-1.81-1.45-2.72-.18-.93-.27-1.63-.27-2.13v-22.8h-4.31v-4.79h4.31v-8.97h5.73v8.97h5.8v4.79h-5.8v21.65c0,.41.06.84.18,1.31.1.47.37.94.78,1.38.4.45.97.82,1.72,1.11.74.29,1.72.43,2.93.43h.2Z"/>
  <path class="st0" d="M681.8,796.96v1.09c0,.53-.09,1.26-.26,2.16-.18.9-.65,1.8-1.42,2.69-.77.9-1.91,1.67-3.44,2.33-1.52.65-3.64.98-6.34.98s-4.82-.33-6.34-.98c-1.53-.65-2.67-1.43-3.44-2.33-.77-.89-1.24-1.81-1.41-2.73-.18-.93-.27-1.63-.27-2.12v-19.97c0-.49.09-1.2.27-2.13.17-.92.64-1.83,1.41-2.72s1.91-1.68,3.44-2.33c1.53-.65,3.64-.98,6.34-.98s4.82.33,6.34.98c1.53.65,2.68,1.43,3.44,2.33.77.9,1.23,1.79,1.42,2.69.18.9.26,1.62.26,2.16v18.88ZM676.07,796.29v-17.2c0-.41-.07-.85-.2-1.31-.13-.48-.42-.92-.84-1.31-.43-.41-1.02-.76-1.79-1.05-.77-.29-1.8-.44-3.1-.44-1.22,0-2.19.15-2.94.44-.74.29-1.31.65-1.72,1.08-.4.43-.66.89-.77,1.39-.11.49-.18.93-.18,1.29v17.8c0,.36.06.79.18,1.29.11.49.37.95.77,1.39.41.42.98.78,1.72,1.07.75.29,1.72.44,2.94.44,1.3,0,2.34-.15,3.1-.44.77-.29,1.36-.64,1.79-1.05.42-.41.7-.84.84-1.31.13-.47.2-.91.2-1.31v-.74Z"/>
  <path class="st0" d="M735.37,805.66h-5.73v-26.51c0-.41-.06-.85-.17-1.32-.12-.47-.36-.92-.74-1.35-.39-.42-.95-.78-1.69-1.07-.74-.29-1.74-.44-3-.44s-2.28.15-3.07.44c-.78.29-1.39.64-1.82,1.05-.43.4-.71.84-.85,1.31-.13.47-.2.88-.2,1.24v26.65h-5.73v-26.51c0-.41-.05-.85-.17-1.32-.11-.47-.36-.92-.74-1.35-.38-.42-.94-.78-1.68-1.07-.74-.29-1.75-.44-3.01-.44s-2.27.15-3.07.44c-.78.29-1.39.64-1.82,1.05-.43.4-.7.84-.85,1.31-.13.47-.2.88-.2,1.24v26.65h-5.66v-27.59c0-.54.09-1.26.27-2.16.18-.9.64-1.79,1.41-2.69.77-.9,1.92-1.67,3.44-2.33,1.53-.65,3.64-.98,6.34-.98,2.16,0,3.92.21,5.29.64,1.38.43,2.49.96,3.34,1.59.86-.63,1.97-1.15,3.34-1.59,1.37-.43,3.13-.64,5.29-.64,2.7,0,4.81.33,6.34.98,1.53.65,2.67,1.43,3.44,2.33.76.9,1.23,1.81,1.41,2.72.19.93.27,1.63.27,2.13v27.59Z"/>
  <path class="st0" d="M760.19,769.91c3.96,0,6.87.78,8.71,2.33,1.84,1.56,2.76,3.49,2.76,5.83v19.97c0,.81-.14,1.69-.44,2.66-.29.97-.86,1.85-1.72,2.67-.85.81-2.02,1.48-3.5,2.02-1.48.55-3.42.81-5.81.81s-4.31-.26-5.8-.81c-1.48-.54-2.65-1.21-3.5-2.02s-1.43-1.69-1.72-2.67c-.3-.97-.44-1.85-.44-2.66v-3.18c0-1.7.44-3.26,1.31-4.65.88-1.39,2.13-2.38,3.75-2.97.8-.26,1.73-.58,2.76-.94,1.03-.36,2.04-.7,3-1.04.97-.35,1.82-.64,2.53-.92.72-.26,1.17-.43,1.35-.47.18-.09.42-.21.71-.37.3-.16.57-.4.85-.71.27-.31.5-.67.7-1.08.2-.41.31-.87.31-1.41v-1.29c0-.45-.09-.91-.27-1.39-.18-.47-.49-.91-.94-1.31-.45-.41-1.04-.73-1.79-.98-.74-.25-1.68-.37-2.8-.37-2.25,0-3.76.47-4.55,1.38-.78.93-1.18,2.04-1.18,3.34h-5.73v-1.62c0-1.12.21-2.18.64-3.17.42-.99,1.11-1.86,2.06-2.6.94-.74,2.13-1.32,3.57-1.75,1.44-.43,3.17-.64,5.19-.64M765.99,787.78c-.09.45-.32.79-.68,1.02-.36.23-.69.38-1,.47-.68.22-1.41.48-2.2.78-.78.29-1.52.55-2.2.78-.8.26-1.57.54-2.29.8-.54.23-1.05.54-1.54.94-.41.36-.78.82-1.12,1.39-.34.56-.5,1.27-.5,2.13,0,1.71.41,2.98,1.22,3.81.8.84,2.31,1.25,4.52,1.25s3.78-.44,4.59-1.32c.81-.87,1.22-2.12,1.22-3.74v-8.3Z"/>
  <path class="st0" d="M802.29,779.7v-.68c0-.45-.09-.91-.27-1.39-.18-.47-.49-.91-.94-1.31-.45-.41-1.04-.73-1.79-.98-.74-.25-1.67-.37-2.79-.37-2.25,0-3.77.47-4.55,1.38-.78.93-1.18,2.04-1.18,3.34v16.39c0,1.71.41,2.98,1.22,3.81.8.84,2.31,1.25,4.52,1.25s3.77-.44,4.59-1.32c.81-.87,1.22-2.12,1.22-3.74h5.66v1.96c0,.81-.14,1.69-.44,2.66-.29.97-.86,1.85-1.72,2.66-.85.81-2.02,1.48-3.5,2.02-1.48.55-3.42.81-5.8.81s-4.31-.26-5.81-.81c-1.48-.54-2.65-1.21-3.5-2.02s-1.43-1.69-1.72-2.66c-.3-.97-.44-1.85-.44-2.66v-19.97c0-1.12.21-2.18.64-3.17.43-.99,1.11-1.86,2.06-2.6.94-.74,2.13-1.32,3.57-1.75,1.44-.42,3.17-.63,5.2-.63,4,0,6.91.78,8.73,2.33,1.82,1.55,2.73,3.49,2.73,5.83v1.62h-5.66Z"/>
  <path class="st0" d="M844.24,783.34v22.33h-5.73v-23.27c0-.85-.16-1.57-.47-2.12-.32-.56-.68-1.02-1.08-1.39-.49-.45-1.03-.78-1.61-1.01-.72-.26-1.49-.54-2.29-.81-.68-.22-1.39-.47-2.16-.74-.77-.26-1.51-.51-2.22-.74-.32-.09-.65-.25-1.01-.47-.36-.23-.58-.59-.68-1.08v31.64h-5.66v-48.97h5.66v9.91c0,.54.11,1.02.31,1.42.2.41.44.76.7,1.08.27.32.55.55.85.71.29.16.53.28.7.37.18.05.63.2,1.35.47.71.28,1.55.58,2.5.91.94.34,1.94.69,3,1.05,1.06.36,1.99.67,2.8.94,1.61.58,2.87,1.57,3.74,2.96.87,1.39,1.31,2.95,1.31,4.66v2.16Z"/>
  <path class="st0" d="M176.3,655.42c-5.28,11.36-15.77,15.89-26.79,19.28-2.42.72-5.5.31-7.99-.48-4.44-1.39-8.84-3.19-12.96-5.35-9-4.75-17.31-5.66-25.76,6.05,0-7.22.36-11.23-.09-15.12-.91-7.73,3.22-11.59,9.58-14.47,2.86-1.32,5.02-1.11,7.78.24,4.87,2.43,10.3,3.79,15.05,6.41,5.79,3.14,11.81,2.04,17.52,1.51,8.31-.79,13.32-7.94,14.74-18.75.62-4.8-5.76-14.52-11.59-16.73-3.6-1.37-7.56-1.78-11.35-2.62-7.95-1.8-16.35-2.54-23.74-5.66-9.24-3.89-15.44-10.75-18.25-21.58-3.91-14.98-.62-27.42,7.35-39.92,4.25-6.72,10.66-10.23,17.16-11.5,11.33-2.21,23.09-1.78,34.28,2.28,1.11.41,2,1.3,3.07,1.85,16.52,8.45,17.31,10.71,9.79,27.8-5.23-3.07-10.37-6.26-15.65-9.24-7.95-4.42-16.71-4.73-25.33-3.87-13.49,1.37-22.01,21.1-13.13,31.26,3.22,3.67,9.27,5.38,14.35,6.87,7.42,2.18,15.34,2.76,22.69,5.14,8.19,2.67,15.75,6.36,20.38,14.86,7.87,14.4,5.23,28.06-1.11,41.77"/>
  <path class="st0" d="M287.71,633.46c-7.61,14.23-18.08,24.05-33.32,28.33-9.41,2.64-18.32,2.54-27.39-2.16-14.19-7.37-21.51-19.52-25.95-34.11-4.13-13.59-3.7-27.77-1.9-41.22,2.3-17.43,8.23-34.11,25.16-44.15,11.09-6.55,16.49-7.3,32.94-2.07,7.85,2.5,15.8,5.02,24.75,1.05.19,2.79.53,5.38.5,7.97-.05,9.58-4.22,13.54-13.85,13.06-1.9-.09-3.86-.65-5.62-1.41-7.83-3.36-16.01-3.58-24.32-3.39-7.42.19-12.58,3.51-16.2,9.91-9.07,16.04-12.19,32.6-7.37,50.87,2.76,10.44,6.91,18.63,16.59,24.32,11.74,6.89,22.11,3.29,31.91-2.98,5.14-3.29,8.83-8.86,13.51-13.73,3.41,3.12,6.92,6.34,10.56,9.7"/>
  <path class="st0" d="M383.54,547.37c-10.78-10.52-23.26-14.4-38.29-11.26-15.41,3.24-26.09,12.22-33.51,25.45-6.1,10.85-8.74,22.66-7.54,34.18-1.49,17.86,3.07,30.1,9.63,38.89,21.1,28.18,47.6,27.46,71.75,5.38,8.11-7.44,12.75-17.86,14.98-29.81,4.56-24.25.98-45.23-17.02-62.82M368.83,633.05c-2.9,2.23-7.11,3.17-10.85,3.79-3.89.62-8.04.62-11.93-.02-3.74-.6-7.94-1.59-10.83-3.84-10.78-8.38-16.9-19.06-16.95-33.44,0-12.61,1.75-24.03,9.7-34.35,14.31-18.61,42.83-15.41,52.91,2.59,4.66,8.31,8.4,16.95,7.01,26.88,1.41,16.61-6.58,28.79-19.06,38.39"/>
  <path class="st0" d="M502.54,613.31c-1.03-9.17-4.61-18.94-14.02-24.12,5.69-10.03,8.33-19.85,4.9-30.58-3.89-12.17-9.77-19.61-25.47-19.9-12.77-.26-25.54-.12-38.34-.02-2.62.02-5.23.58-7.66.84v108.62c5.06-1.92,9.67-3.84,14.4-5.35,2.18-.7,4.73-1.22,6.91-.82,7.64,1.47,15.34,2.78,22.69,5.19,24.51,8.02,38.7-15.08,36.58-33.85M436.24,584.22v-30.39c11.76-1.66,23.55-.67,35.26-.55,1.9.02,4.3,2.11,5.55,3.91,3.96,5.64,3.15,12.63,1.32,18.15-1.71,5.19-6.48,9.51-13.78,9.03-9.03-.6-18.15-.14-28.35-.14M478.53,632.09c-3.91,1.44-7.59,2.38-12.05.31-9.27-4.3-19.28-5.95-30.03-5.16v-28.64c13.06,0,25.71-.24,38.34.1,6.48.17,12.6,7.42,13.87,15.22,1.2,7.51-3.17,15.58-10.13,18.17"/>
  <path class="st0" d="M605.57,546.92c-3.72,9.46-7.71,18.6-13.87,27.05-8.96,12.31-19.21,23.98-24.75,38.53-2.33,6.17-4.56,12.39-6.24,18.77-1.49,5.59-2.11,11.4-3.14,17.31h-12.24c-2.09-9.99,2.3-29.02,10.39-44.82-12.63-21.2-25.35-42.54-38.63-64.79h16.13c9.51,16.47,19.11,33.08,28.71,49.72,9.58-5.3,23.6-27.56,31.21-49.72h12.55c0,2.79.77,5.69-.12,7.95"/>
  <path class="st0" d="M697.85,649.04c-3.1,3.55-8.67,6.05-13.44,6.77-9.82,1.51-19.78.55-28.64-4.7-4.35-2.6-7.78-7.06-13.4-6.87-4.56.14-9.07.98-14.16,1.58-.17-1.51-.43-3.02-.48-4.54-.31-13.95,6.12-18.15,19.42-12.46,6.12,2.62,12,5.86,18.05,8.74,7.56,3.63,14.52,2.35,20.96-2.74,7.47-5.9,7.3-22.3-2.74-25.16-5.98-1.68-11.66-4.32-17.59-6.12-6.31-1.94-13.13-2.57-19.09-5.26-14.62-6.58-21.44-14.48-21.39-30.25.05-14.81,8.62-27.53,22.71-31.02,13.25-3.29,26.79-2.54,39.71,2.93,1.44.6,2.86,1.32,4.25,2.02,15.56,7.71,15.6,7.92,5.3,22.8-4.2-2.81-8.14-6.1-12.6-8.35-9.6-4.8-20.12-3.91-30.3-3.12-7.35.55-13.75,7.8-14.16,15.34-.31,5.45,3.1,9.96,7.68,12.44,4.75,2.54,10.08,4.54,15.36,5.33,7.8,1.2,15.03,3.72,22.42,6.29,26.04,9,26.24,40.07,12.12,56.34"/>
  <path class="st0" d="M804.82,641.5c-5.26,12.46-16.78,22.21-31.95,22.16-12.63-.05-23.4-3.94-32.45-11.64-5.14-4.37-9.24-10.99-11.6-17.43-2.9-7.92-5.45-16.2-5.33-25.08.34-23.14.12-46.28.12-70.55h13.8c.19,3.29.53,6.34.53,9.41.05,20.79.29,41.55-.07,62.32-.22,12.89,7.95,27.3,23.74,32.36,13.68,4.42,32.62-5.55,33.63-23.62.55-10.08,2.38-20.62-1.92-30.61-.75-1.7-.1-3.96-.22-5.95-.31-5.06-.94-10.03-1.78-15.07-1.63-9.58,2.02-19.11,4.44-28.59h13.73c-1.54,9.72-3.82,18.85-4.15,28.04-.26,7.7,1.44,15.56,2.86,23.24,3.19,17.36,3.58,34.64-3.39,51.04"/>
  <path class="st0" d="M922.23,673.71c-14.67,6.02-32.96-4.82-40.64-18.15-7.15-12.36-10.59-25.95-14.16-39.54-3.36-12.75-4.95-26-9.74-38.34-2.62-6.7-4.44-14.38-13.28-17.88-1.85,12.1-.72,23.55-.91,34.93-.22,11.59-.05,23.16-.05,34.76v35.74c-4.52.19-8.69.38-12.82.55-1.99-9.6-2.66-101.28-.94-126.97,5.3-.05,10.8-.58,16.2-.07,8.16.77,13.35,5.86,17.09,12.94,6.08,11.52,8.76,24.03,11.74,36.56,4.15,17.36,6.24,35.48,15.65,51.16,3,4.97,7.32,9.22,11.43,13.44.98,1.01,3.5.53,6.38.86v-114.6h12.72c2.3,8.81,3.12,89.76,1.32,134.6"/>
  <path class="st0" d="M365.82,466.32c-12.29-1.16-24.72-.8-36.93-3.51-6.95-1.56-14.39-.88-21.33-2.4-7.96-1.75-16.26-.6-24.02-3.59-2.03-.8-4.59-.22-6.9-.22-9.94-.02-19.87,0-30.13,0-3.13-7.54,3.15-14.03.76-21.95,7.78.66,14.43-1.08,21.31,1.48,5.11,1.88,10.87,1.22,16.38,2.18,13.05,2.29,25.98,5.15,38.97,7.68,9.2,1.77,18.48,3.25,27.78,4.59,8.04,1.18,16.14,1.95,24.88,2.97.16.6.3.92.3,1.22.4,11.77.3,12.63-11.05,11.55"/>
  <path class="st0" d="M400.94,411.71c-1.6,2.41-3.31,4.71-5.15,7.3-15.32-7.34-30.03-14.95-44-23.98-13.09-8.46-27.02-15.68-39.59-24.84-13.77-10.02-28.33-18.48-43.26-26.46-4.25-2.25-8.9-3.77-14.51-6.1,5.73-8.42,10.61-15.65,16.08-23.67,10.04,6.31,19.64,11.75,28.6,18.1,15.66,11.09,30.91,22.79,46.37,34.18,17.26,12.73,34.12,26.06,53.02,36.48,5.27,2.91,5.58,4.27,2.43,9"/>
  <path class="st0" d="M453.8,363.28c-4.45,2.27-7.6,3.89-11.59,5.94-4.49-7.48-9.14-14.77-13.33-22.31-5.99-10.76-11.83-21.61-17.38-32.59-3.81-7.52-7.12-15.32-10.52-23.05-5.53-12.63-13.71-23.63-21.77-35.54,5.99-3.55,12.01-7.14,18.68-11.09,3.85,6.6,7.96,12.47,10.86,18.9,8.48,18.84,16.46,37.91,24.66,56.91,4.49,10.42,8.9,20.87,13.59,31.21,1.72,3.75,4.17,7.16,6.8,11.61"/>
  <path class="st0" d="M522.6,228.93c-.32,31.53.08,63.07-.22,94.6-.14,14.09-1.28,28.17-1.98,42.8h-15.86c0-3.97.12-7.26,0-10.56-.64-17.44-1.32-34.88-2-52.32-4.27-9.22.38-19.67-3.93-28.91.68-23.37-4.27-46.63-1.36-70.58h28.06c-.94,8.36-2.63,16.64-2.71,24.96"/>
  <path class="st0" d="M566,494c-2.75.18-5.23.46-7.7.46-27.9.02-55.77-.04-83.65.04-6.4.02-12.81.52-19.45.82,2.19-10.26,5.77-20.39,12.67-28.59,10.89-12.97,25.44-19.54,43.76-14.7,4.81,1.26,9.48,2.61,13.65,4.99,4.09,2.31,8.48,3.09,12.79,4.45,14.05,4.43,22.07,14.63,26.26,28.27.2.62.26,1.28.48,1.9.22.62.58,1.18,1.2,2.37"/>
  <path class="st0" d="M594.29,497.79c-1.83.16-3.37.56-4.83.36-2.85-.38-5.65-1.32-8.5-1.63-5.23-.58-5.79-1.22-6.7-6.43-2.95-16.72-11.43-29.47-27.51-36.08-3.79-1.56-8.34-1.2-12.29-2.47-11.93-3.85-24-5.71-36.6-4.99-17.84,1-32.2,8.04-41.38,23.57-3.21,5.45-4.53,12.03-6.54,18.14-1.58,4.79-2.71,8.94-9.7,8.78-3.11-.08-6.7,1.68-11.64.72,1.86-17.62,5.87-33.72,17.26-47.19,4.61-5.48,10.1-10.12,15.16-15.14,1.14-1.12,2.58-1.97,3.99-2.77,12.17-6.94,24.86-12.79,38.67-15.44,9.12-1.74,18.08.06,27.04,2.59,22.77,6.43,38.81,21.33,50.2,41.05,5.37,9.32,9.82,19.71,11.35,30.81.26,1.88,1.18,3.63,2.01,6.15"/>
  <path class="st0" d="M633.86,504.49c-9.84-1.72-18.4-3.21-26.78-4.67-5.51-19.61-12.03-38.21-24.78-54.63-13.21-17.02-29.87-27.95-49.54-35.22-7.47-2.77-15.19-3.41-23.11-3.29-9.18.16-18.3-.06-27.16,3.11-14.39,5.13-26.92,12.73-37.87,23.7-11.71,11.71-19.41,25.52-24.38,40.87-2.57,7.92-3.03,16.52-4.55,25.46-7.96,1.6-16.54,4.39-26.2,4.83-1.36-17.84-.42-34.32,7.34-50.28,6.61-13.57,15.27-25.38,26.62-35.02,11.97-10.18,25.48-17.96,40.49-23.19,10.14-3.51,20.45-5.67,30.99-7.66,13.23-2.52,26.34-1.8,39.41-1.38,12.67.4,24.86,4.41,36.04,10.76,10.81,6.15,21.23,12.81,29.99,21.91,9.62,10.02,16.1,21.85,22.53,34,5.77,10.87,7.88,22.59,10.78,34.14,1.24,4.93.2,10.44.2,16.56"/>
  <path class="st0" d="M646.65,254.77c-3.35,5.07-6.72,9.44-9.34,14.19-7.06,12.85-14.15,25.7-20.57,38.89-9.7,19.91-19.91,39.55-31.23,58.58-.52.86-1.18,1.62-2.01,2.75-3.83-1.75-7.28-3.35-11.31-5.21,1.48-3.39,2.65-6.68,4.27-9.72,10.28-19.22,18.06-39.47,26.12-59.66,6.39-16,14.71-31.21,22.21-46.75.44-.88,1.2-1.57,2.35-3.05,6.84,3.49,12.85,6.56,19.51,9.98"/>
  <path class="st0" d="M770.94,337.86c-12.17,5.53-24.28,10.89-35.52,18.14-15.56,10.04-31.88,18.96-46.91,29.71-15.7,11.28-32.79,19.94-49.51,29.27-9.92,5.53-10.12,5.17-15.03-4.71-.58-1.16-1.22-2.27-2.27-4.27,24.36-14.15,45.87-31.01,67.72-47.41,18.96-14.23,37.69-28.87,58.94-39.75,2.24-1.16,4.19-2.83,7.14-4.87,5.43,8.42,10.47,16.22,15.42,23.88"/>
  <path class="st0" d="M778.96,456.6c-9.16,0-18.34.04-27.49-.02-9.16-.06-18.06,1.68-26.94,3.63-5.71,1.28-11.54.6-17.44,1.96-8.8,2.03-18.16,1.67-27.26,2.41-7.14.58-14.27,1.36-21.39,1.93-2.31.2-4.63.04-7.88.04-1.08-4.73-1.98-8.7-3.07-13.53,3.21-.16,5.45-.44,7.66-.38,8.84.18,17.36-1.64,25.94-3.61,8.48-1.96,17.22-2.81,25.8-4.43,8.54-1.62,17.06-3.41,25.5-5.45,4.41-1.08,8.94-1.05,13.41-2.01,9.82-2.11,20.09-2.11,30.03-2.95,4.09,7.16,4.23,14.17,3.13,22.41"/>
</svg>